<svg width="48" height="48" viewBox="0 0 48 48" fill="none" xmlns="http://www.w3.org/2000/svg">
<rect width="48" height="48" rx="24" fill="black"/>
<path d="M33.7724 29.7033C33.4062 30.5418 32.9726 31.3136 32.4703 32.0232C31.7857 32.9906 31.225 33.6602 30.793 34.032C30.1233 34.6424 29.4057 34.955 28.6373 34.9728C28.0857 34.9728 27.4204 34.8172 26.646 34.5017C25.8691 34.1876 25.1551 34.032 24.5023 34.032C23.8176 34.032 23.0833 34.1876 22.2978 34.5017C21.5112 34.8172 20.8775 34.9816 20.393 34.9979C19.6561 35.0291 18.9217 34.7076 18.1885 34.032C17.7206 33.6276 17.1354 32.9343 16.4342 31.9521C15.682 30.9033 15.0635 29.687 14.579 28.3004C14.0601 26.8026 13.8 25.3523 13.8 23.9482C13.8 22.3398 14.1507 20.9526 14.8532 19.7901C15.4053 18.8564 16.1397 18.1198 17.059 17.5791C17.9782 17.0383 18.9714 16.7628 20.0411 16.7452C20.6263 16.7452 21.3939 16.9246 22.3476 17.2771C23.2987 17.6309 23.9094 17.8103 24.1771 17.8103C24.3773 17.8103 25.0557 17.6005 26.2058 17.1823C27.2933 16.7945 28.2112 16.6339 28.9632 16.6972C31.0008 16.8601 32.5316 17.6561 33.5497 19.0901C31.7274 20.1843 30.8259 21.7169 30.8438 23.6829C30.8603 25.2142 31.4209 26.4886 32.5227 27.5004C33.022 27.97 33.5796 28.333 34.2 28.5907C34.0654 28.9774 33.9234 29.3477 33.7724 29.7033ZM29.0992 11.4801C29.0992 12.6804 28.6567 13.8011 27.7747 14.8384C26.7103 16.0716 25.4229 16.7841 24.0267 16.6717C24.009 16.5277 23.9986 16.3761 23.9986 16.2169C23.9986 15.0646 24.5048 13.8315 25.4037 12.8232C25.8525 12.3127 26.4233 11.8882 27.1155 11.5496C27.8061 11.2161 28.4594 11.0316 29.0738 11C29.0918 11.1605 29.0992 11.3209 29.0992 11.4801V11.4801Z" fill="white"/>
</svg>
