<svg width="48" height="48" viewBox="0 0 48 48" fill="none" xmlns="http://www.w3.org/2000/svg">
<rect width="48" height="48" rx="24" fill="black"/>
<g clip-path="url(#clip0_0_775)">
<path d="M20.2 36C22.408 36 24.2001 34.208 24.2001 32V27.9999H20.2C17.992 27.9999 16.2 29.792 16.2 32C16.2 34.208 17.992 36 20.2 36Z" fill="white"/>
<path d="M16.2 24C16.2 21.792 17.992 19.9999 20.2 19.9999H24.2001V27.9999H20.2C17.992 28 16.2 26.208 16.2 24Z" fill="white"/>
<path d="M16.2 16C16.2 13.792 17.992 12 20.2 12H24.2001V20H20.2C17.992 20 16.2 18.208 16.2 16Z" fill="white"/>
<path d="M24.1998 12H28.1999C30.4079 12 32.2 13.792 32.2 16C32.2 18.208 30.4079 20 28.1999 20H24.1998V12Z" fill="white"/>
<path d="M32.2 24C32.2 26.208 30.4079 28 28.1999 28C25.9919 28 24.1998 26.208 24.1998 24C24.1998 21.792 25.9919 19.9999 28.1999 19.9999C30.4079 19.9999 32.2 21.792 32.2 24Z" fill="white"/>
</g>
<defs>
<clipPath id="clip0_0_775">
<rect width="24" height="24" fill="white" transform="translate(12 12)"/>
</clipPath>
</defs>
</svg>
