<svg width="48" height="48" viewBox="0 0 48 48" fill="none" xmlns="http://www.w3.org/2000/svg">
<rect width="48" height="48" rx="24" fill="black"/>
<g clip-path="url(#clip0_0_777)">
<path fill-rule="evenodd" clip-rule="evenodd" d="M23.9958 12.6C21.1648 12.6015 18.4266 13.6042 16.2709 15.4288C14.1151 17.2534 12.6824 19.781 12.2289 22.5596C11.7754 25.3381 12.3306 28.1865 13.7954 30.5953C15.2602 33.0042 17.5389 34.8165 20.2241 35.7081C20.8166 35.818 21.0397 35.4509 21.0397 35.1387C21.0397 34.8265 21.0278 33.9213 21.0239 32.9317C17.7064 33.6484 17.0054 31.5318 17.0054 31.5318C16.4643 30.1574 15.6823 29.7961 15.6823 29.7961C14.6002 29.0617 15.7633 29.0755 15.7633 29.0755C16.9619 29.1599 17.5919 30.2987 17.5919 30.2987C18.6543 32.111 20.3821 31.5868 21.0614 31.2805C21.1681 30.5127 21.4781 29.9905 21.8197 29.694C19.1697 29.3955 16.3853 28.3784 16.3853 23.835C16.3689 22.6567 16.8087 21.5171 17.6136 20.6522C17.4912 20.3537 17.0824 19.1482 17.7301 17.5106C17.7301 17.5106 18.7313 17.1926 21.0101 18.726C22.9647 18.1945 25.027 18.1945 26.9816 18.726C29.2584 17.1926 30.2576 17.5106 30.2576 17.5106C30.9073 19.1442 30.4985 20.3498 30.3761 20.6522C31.1836 21.5173 31.6243 22.6588 31.6063 23.8389C31.6063 28.3922 28.8161 29.3955 26.1621 29.6881C26.5886 30.0572 26.9697 30.7778 26.9697 31.8852C26.9697 33.4717 26.9559 34.7479 26.9559 35.1387C26.9559 35.4548 27.1711 35.8239 27.7754 35.7081C30.461 34.8164 32.7399 33.0038 34.2047 30.5945C35.6694 28.1852 36.2244 25.3364 35.7703 22.5576C35.3163 19.7788 33.8829 17.2512 31.7264 15.4269C29.57 13.6026 26.8311 12.6005 23.9998 12.6H23.9958Z" fill="white"/>
<path d="M16.5864 29.6252C16.5608 29.6842 16.466 29.7018 16.389 29.6606C16.3119 29.6194 16.2547 29.5428 16.2823 29.4819C16.31 29.421 16.4028 29.4053 16.4798 29.4466C16.5568 29.4878 16.6161 29.5663 16.5864 29.6252Z" fill="white"/>
<path d="M17.0703 30.1613C17.0294 30.1818 16.9826 30.1875 16.9379 30.1774C16.8933 30.1674 16.8535 30.1423 16.8254 30.1063C16.7484 30.0238 16.7326 29.9099 16.7918 29.8589C16.8511 29.8078 16.9577 29.8314 17.0347 29.9139C17.1117 29.9963 17.1295 30.1102 17.0703 30.1613Z" fill="white"/>
<path d="M17.5403 30.8426C17.4672 30.8936 17.3428 30.8426 17.2737 30.7405C17.2546 30.7222 17.2394 30.7002 17.229 30.6759C17.2186 30.6516 17.2133 30.6255 17.2133 30.5991C17.2133 30.5727 17.2186 30.5466 17.229 30.5223C17.2394 30.498 17.2546 30.4761 17.2737 30.4577C17.3468 30.4087 17.4712 30.4577 17.5403 30.5579C17.6094 30.658 17.6114 30.7915 17.5403 30.8426Z" fill="white"/>
<path d="M18.1781 31.5023C18.1129 31.575 17.9806 31.5553 17.872 31.4572C17.7634 31.359 17.7377 31.2255 17.8029 31.1548C17.8681 31.0841 18.0004 31.1037 18.1129 31.1999C18.2255 31.2962 18.2472 31.4316 18.1781 31.5023Z" fill="white"/>
<path d="M19.0726 31.8871C19.043 31.9794 18.9087 32.0207 18.7744 31.9814C18.6401 31.9421 18.5513 31.8322 18.5769 31.7379C18.6026 31.6437 18.7389 31.6005 18.8751 31.6437C19.0114 31.6869 19.0983 31.7909 19.0726 31.8871Z" fill="black"/>
<path d="M20.0482 31.9539C20.0482 32.0501 19.9376 32.1326 19.7954 32.1346C19.6533 32.1365 19.5367 32.058 19.5367 31.9618C19.5367 31.8656 19.6473 31.7831 19.7895 31.7811C19.9317 31.7792 20.0482 31.8557 20.0482 31.9539Z" fill="black"/>
<path d="M20.9565 31.8027C20.9743 31.899 20.8756 31.9991 20.7334 32.0227C20.5912 32.0462 20.4668 31.9893 20.449 31.895C20.4313 31.8008 20.5339 31.6987 20.6722 31.6732C20.8104 31.6476 20.9388 31.7065 20.9565 31.8027Z" fill="black"/>
</g>
<defs>
<clipPath id="clip0_0_777">
<rect width="24" height="24" fill="white" transform="translate(12 12)"/>
</clipPath>
</defs>
</svg>
