<svg width="48" height="48" viewBox="0 0 48 48" fill="none" xmlns="http://www.w3.org/2000/svg">
<rect width="48" height="48" rx="24" fill="black"/>
<g clip-path="url(#clip0_0_895)">
<path d="M20.7436 12.5422C16.9976 12.8194 13.8131 13.0743 13.6634 13.1042C13.2436 13.179 12.8617 13.4638 12.6821 13.8386L12.5248 14.1684L12.5399 22.028L12.5622 29.8877L12.802 30.3748C12.937 30.6444 13.851 31.9033 14.8474 33.1992C16.818 35.7541 16.9602 35.8967 17.7093 35.9715C17.9268 35.9938 19.56 35.9189 21.3283 35.8142C23.1042 35.7019 25.9509 35.5295 27.6594 35.4323C34.9567 34.9893 34.5819 35.0267 35.0012 34.6671C35.5258 34.2326 35.4883 34.9443 35.5106 25.3917C35.5258 17.2922 35.5182 16.7606 35.3983 16.5133C35.2562 16.2361 35.0012 16.0414 31.6746 13.7035C29.4495 12.1452 29.2922 12.0627 28.2953 12.0476C27.8836 12.0329 24.482 12.2575 20.7436 12.5422ZM29.1648 13.5685C29.4794 13.7107 31.7798 15.3141 32.1166 15.6216C32.2067 15.7116 32.2365 15.7864 32.1915 15.8315C32.0868 15.9215 17.851 16.7682 17.4392 16.708C17.2521 16.6782 16.9749 16.5659 16.8176 16.4607C16.1656 16.0186 14.5475 14.6924 14.5475 14.5953C14.5475 14.3404 14.4949 14.3404 20.8412 13.8836C22.0551 13.8012 24.048 13.6514 25.2619 13.5538C27.8911 13.3439 28.6782 13.3515 29.1648 13.5685ZM33.6902 17.667C33.7949 17.7717 33.8849 17.9741 33.9148 18.1688C33.937 18.3489 33.9522 21.7054 33.937 25.6163C33.9148 32.3293 33.9072 32.7491 33.7797 32.9438C33.7049 33.0637 33.5552 33.1912 33.4424 33.2286C33.1282 33.3561 18.2111 34.2028 17.904 34.1127C17.7619 34.0753 17.5667 33.9554 17.462 33.8507L17.2819 33.656L17.2596 26.4184C17.2445 21.3386 17.2596 19.0908 17.3198 18.8885C17.3648 18.7388 17.4771 18.5588 17.5747 18.4991C17.7098 18.409 18.5939 18.3342 21.6358 18.1546C23.7713 18.0347 27.0752 17.8324 28.971 17.7201C33.4803 17.4424 33.4656 17.4424 33.6902 17.667Z" fill="white"/>
<path d="M29.6817 20.147C28.8724 20.1996 28.1532 20.2744 28.0707 20.3194C27.8234 20.4469 27.6737 20.6568 27.6438 20.8965C27.6216 21.1439 27.6964 21.1737 28.5052 21.2713L28.8573 21.3163V24.5156C28.8573 26.4184 28.8274 27.6773 28.79 27.6399C28.7526 27.5949 27.6888 25.9768 26.4223 24.0436C25.1563 22.1034 24.1073 20.5071 24.0921 20.4924C24.0769 20.4772 23.253 20.5222 22.2641 20.59C21.0502 20.6724 20.3835 20.7473 20.2485 20.8222C20.031 20.9345 19.7913 21.3315 19.7913 21.594C19.7913 21.7513 20.076 21.8338 20.6754 21.8338H20.99V31.0343L20.4807 31.1916C20.0836 31.3115 19.9486 31.3864 19.8813 31.5361C19.7614 31.791 19.769 32.0232 19.8889 32.0232C19.9339 32.0232 20.7806 31.9706 21.7543 31.9109C23.6799 31.7986 23.8969 31.746 24.0992 31.349C24.1594 31.2291 24.2115 31.1016 24.2115 31.0642C24.2115 31.0343 23.9495 30.9443 23.6344 30.8694C23.3122 30.7946 22.99 30.7197 22.9227 30.7046C22.7953 30.6671 22.7877 30.435 22.7877 27.213V23.7589L25.0653 27.3329C27.4553 31.0789 27.7552 31.5063 28.1224 31.6934C28.5796 31.9332 29.7409 31.7683 30.3252 31.3864L30.5052 31.2741L30.5204 26.1644L30.5426 21.0472L30.9397 20.9724C31.4116 20.8823 31.6291 20.6653 31.6291 20.2905C31.6291 20.0508 31.6139 20.0356 31.3894 20.0432C31.2553 20.0494 30.4834 20.0944 29.6817 20.147Z" fill="white"/>
</g>
<defs>
<clipPath id="clip0_0_895">
<rect width="24" height="24" fill="white" transform="translate(12 12)"/>
</clipPath>
</defs>
</svg>
