<svg width="48" height="48" viewBox="0 0 48 48" fill="none" xmlns="http://www.w3.org/2000/svg">
<rect width="48" height="48" rx="24" fill="black"/>
<g clip-path="url(#clip0_0_771)">
<path d="M24.0486 31.2229C20.0618 31.2229 18.2403 29.192 18.2403 27.7023C18.2397 27.347 18.3856 27.0071 18.6435 26.7626C18.9014 26.5182 19.2486 26.3907 19.6035 26.4103C21.3104 26.4103 20.8639 28.9707 24.0486 28.9707C25.6766 28.9707 26.6328 27.9908 26.6328 27.0701C26.6328 26.517 26.3167 25.8848 25.2419 25.6319L21.6858 24.7349C18.829 24.0079 18.3312 22.4195 18.3312 20.9457C18.3312 17.8874 21.1287 16.781 23.7918 16.781C26.2455 16.781 29.1616 18.1363 29.1616 19.9697C29.1616 20.76 28.5017 21.1828 27.7352 21.1828C26.2772 21.1828 26.5221 19.136 23.5903 19.136C22.1323 19.136 21.3657 19.8196 21.3657 20.7758C21.3657 21.732 22.4997 22.056 23.4955 22.2733L26.1191 22.866C28.9956 23.514 29.7622 25.2012 29.7622 26.8173C29.7622 29.3026 27.8379 31.2229 24.0447 31.2229H24.0486ZM35.0569 25.9638C35.1708 25.3114 35.2276 24.6504 35.2268 23.9882C35.2407 20.6616 33.7791 17.5001 31.2358 15.3558C28.6926 13.2116 25.3296 12.3052 22.0533 12.8811C21.0462 12.3014 19.9041 11.9974 18.7421 12C16.357 12.0146 14.1584 13.2929 12.9659 15.3585C11.7733 17.4242 11.7656 19.9673 12.9456 22.0402C12.2872 25.6581 13.4405 29.3693 16.0337 31.9766C18.6269 34.584 22.3317 35.7576 25.9532 35.1189C26.9589 35.6982 28.0997 36.0021 29.2604 36C31.6443 35.9846 33.8415 34.7069 35.0338 32.6425C36.2261 30.5781 36.2349 28.0364 35.0569 25.9638Z" fill="white"/>
</g>
<defs>
<clipPath id="clip0_0_771">
<rect width="24" height="24" fill="white" transform="translate(12 12)"/>
</clipPath>
</defs>
</svg>
