<svg width="48" height="48" viewBox="0 0 48 48" fill="none" xmlns="http://www.w3.org/2000/svg">
<rect width="48" height="48" rx="24" fill="black"/>
<path d="M34.4906 29.4027C30.7034 27.5986 30.0997 24.8132 30.0729 24.6066C30.0404 24.3564 30.0035 24.1596 30.2841 23.9051C30.5546 23.6591 31.755 22.928 32.088 22.6993C32.6385 22.3205 32.881 21.9424 32.7023 21.4775C32.5773 21.1559 32.273 21.0348 31.9524 21.0348C31.8513 21.0351 31.7505 21.0462 31.6519 21.068C31.047 21.1971 30.4597 21.4953 30.1197 21.5759C30.0789 21.5863 30.0369 21.5918 29.9948 21.5925C29.8136 21.5925 29.7448 21.5132 29.7623 21.2986C29.8048 20.648 29.8948 19.3783 29.7904 18.1922C29.6473 16.5603 29.1125 15.7517 28.4782 15.0366C28.1714 14.6899 26.7468 13.2 23.9974 13.2C21.248 13.2 19.8252 14.6899 19.5203 15.0323C18.8842 15.7474 18.3499 16.556 18.2081 18.1879C18.1037 19.374 18.1975 20.6431 18.2362 21.2943C18.2487 21.4984 18.185 21.5882 18.0038 21.5882C17.9616 21.5875 17.9196 21.5819 17.8788 21.5716C17.5395 21.491 16.9521 21.1928 16.3473 21.0637C16.2486 21.0419 16.1478 21.0308 16.0467 21.0305C15.7249 21.0305 15.4219 21.1535 15.2969 21.4732C15.1182 21.9381 15.3594 22.3162 15.9117 22.695C16.2448 22.9237 17.4451 23.6542 17.7157 23.9008C17.9956 24.1553 17.9594 24.3521 17.9269 24.6023C17.9 24.812 17.2958 27.5974 13.5092 29.3984C13.2873 29.5042 12.9099 29.728 13.5754 30.0895C14.6202 30.6577 15.3156 30.5968 15.8561 30.9393C16.3148 31.2301 16.0436 31.8573 16.3773 32.0836C16.7872 32.3621 17.9988 32.0639 19.564 32.5724C20.8762 32.9979 21.6735 34.2 24.0005 34.2C26.3275 34.2 27.1479 32.9924 28.437 32.5724C29.9991 32.0639 31.2132 32.3621 31.6238 32.0836C31.9568 31.8573 31.6863 31.2301 32.1449 30.9393C32.6854 30.5968 33.3802 30.6577 34.4256 30.0895C35.0898 29.7323 34.7124 29.5085 34.4906 29.4027Z" fill="white"/>
</svg>
