<svg width="48" height="48" viewBox="0 0 48 48" fill="none" xmlns="http://www.w3.org/2000/svg">
<rect width="48" height="48" rx="24" fill="black"/>
<g clip-path="url(#clip0_0_897)">
<path d="M32.4 12H15.6C13.6118 12 12 13.6118 12 15.6V32.4C12 34.3882 13.6118 36 15.6 36H32.4C34.3882 36 36 34.3882 36 32.4V15.6C36 13.6118 34.3882 12 32.4 12Z" fill="black"/>
<path d="M29.8781 16.9359C30.3938 17.7844 30.6235 18.6562 30.6235 19.7625C30.6235 23.2828 27.6188 27.8578 25.1766 31.0687H19.6078L17.3766 17.7094L22.2563 17.2453L23.4422 26.7516C24.5438 24.9516 25.9078 22.125 25.9078 20.2031C25.9078 19.1484 25.725 18.4312 25.4438 17.8406L29.8781 16.9359Z" fill="white"/>
</g>
<defs>
<clipPath id="clip0_0_897">
<rect width="24" height="24" fill="white" transform="translate(12 12)"/>
</clipPath>
</defs>
</svg>
